<svg width="27" height="27" viewBox="0 0 27 27" fill="none" xmlns="http://www.w3.org/2000/svg">
<path fill-rule="evenodd" clip-rule="evenodd" d="M19.7631 1.10036C19.5 0.687178 19.1125 0.364899 18.6544 0.178382C18.1963 -0.00813441 17.6904 -0.0496093 17.2073 0.0597323L13.7779 0.834108C13.4264 0.913516 13.0612 0.913516 12.7098 0.834108L9.2804 0.0597323C8.79721 -0.0496093 8.29136 -0.00813441 7.83326 0.178382C7.37517 0.364899 6.98763 0.687178 6.72458 1.10036L4.8554 4.03286C4.66467 4.33286 4.40718 4.58598 4.10201 4.77536L1.11895 6.61286C0.699368 6.87122 0.372014 7.25157 0.182322 7.70113C-0.00736999 8.15069 -0.0499895 8.64715 0.060379 9.12161L0.848105 12.4966C0.928591 12.8415 0.928591 13.1998 0.848105 13.5447L0.060379 16.9179C-0.0504184 17.3926 -0.00801343 17.8895 0.181699 18.3394C0.371411 18.7893 0.699006 19.17 1.11895 19.4285L4.10201 21.266C4.40718 21.4535 4.66467 21.7066 4.85731 22.0066L6.72649 24.9391C7.26436 25.7847 8.2905 26.2029 9.2804 25.9797L12.7098 25.2054C13.0612 25.126 13.4264 25.126 13.7779 25.2054L17.2092 25.9797C17.6921 26.0887 18.1975 26.047 18.6552 25.8605C19.1129 25.674 19.5001 25.3519 19.7631 24.9391L21.6323 22.0066C21.823 21.7066 22.0805 21.4535 22.3856 21.266L25.3706 19.4285C25.7906 19.1696 26.118 18.7885 26.3074 18.3382C26.4968 17.8879 26.5387 17.3908 26.4273 16.916L25.6415 13.5447C25.5607 13.1992 25.5607 12.8402 25.6415 12.4947L26.4292 9.12161C26.5402 8.64707 26.498 8.15034 26.3087 7.70042C26.1193 7.25049 25.7921 6.86972 25.3725 6.61098L22.3876 4.77348C22.0828 4.58564 21.8252 4.33244 21.6342 4.03286L19.7631 1.10036ZM18.8037 8.83848C18.9217 8.62523 18.9509 8.37531 18.8852 8.14131C18.8196 7.9073 18.6641 7.70745 18.4516 7.58381C18.2391 7.46018 17.9861 7.42238 17.7459 7.47839C17.5056 7.5344 17.2968 7.67984 17.1634 7.88411L12.1757 16.1829L9.16405 13.3479C9.07471 13.2577 8.9678 13.1861 8.84971 13.1374C8.73162 13.0887 8.60476 13.0639 8.4767 13.0645C8.34864 13.065 8.22201 13.0909 8.10435 13.1406C7.9867 13.1903 7.88043 13.2628 7.79189 13.3537C7.70335 13.4447 7.63434 13.5522 7.58899 13.67C7.54364 13.7877 7.52288 13.9132 7.52794 14.039C7.533 14.1648 7.56377 14.2883 7.61843 14.4021C7.6731 14.516 7.75052 14.6178 7.84609 14.7016L11.7256 18.356C11.8294 18.4536 11.9543 18.5269 12.091 18.5703C12.2277 18.6138 12.3726 18.6264 12.5149 18.6071C12.6572 18.5878 12.7933 18.5372 12.9129 18.4589C13.0325 18.3807 13.1326 18.2769 13.2057 18.1554L18.8037 8.83848Z" fill="#C80000"/>
</svg>

