<svg width="48" height="48" viewBox="0 0 48 48" fill="none" xmlns="http://www.w3.org/2000/svg">
<path d="M44.5664 0.886719H3.4375C2.02874 0.886719 0.886719 2.02874 0.886719 3.4375V44.5664C0.886719 45.9752 2.02874 47.1172 3.4375 47.1172H44.5664C45.9752 47.1172 47.1172 45.9752 47.1172 44.5664V3.4375C47.1172 2.02874 45.9752 0.886719 44.5664 0.886719Z" fill="#3D5A98"/>
<path d="M32.7813 47.1139V29.2116H38.7891L39.6875 22.235H32.7813V17.7819C32.7813 15.7624 33.3438 14.3835 36.2383 14.3835H39.9336V8.13346C38.1442 7.94731 36.3459 7.85864 34.5469 7.86784C29.2266 7.86784 25.5625 11.11 25.5625 17.0905V22.235H19.5547V29.2116H25.5625V47.1139H32.7813Z" fill="white"/>
</svg>
