<svg width="37" height="37" viewBox="0 0 37 37" fill="none" xmlns="http://www.w3.org/2000/svg">
<path fill-rule="evenodd" clip-rule="evenodd" d="M16.1873 2.69824C15.8807 2.69824 15.5866 2.82006 15.3697 3.0369C15.1529 3.25374 15.0311 3.54784 15.0311 3.85449C15.0311 4.16115 15.1529 4.45525 15.3697 4.67208C15.5866 4.88892 15.8807 5.01074 16.1873 5.01074H17.3436V7.37258C14.3331 7.63157 11.4968 8.89379 9.28921 10.9569C7.08162 13.02 5.63062 15.7646 5.16878 18.7507C4.70694 21.7367 5.261 24.7914 6.74217 27.425C8.22333 30.0587 10.5458 32.1188 13.3374 33.2752C16.1289 34.4315 19.2279 34.6172 22.1375 33.8024C25.0471 32.9876 27.599 31.2195 29.384 28.7815C31.169 26.3435 32.0838 23.3769 31.9818 20.357C31.8797 17.3372 30.7668 14.439 28.8213 12.1271L30.1086 10.8398C30.3193 10.6218 30.436 10.3298 30.4335 10.0266C30.431 9.72346 30.3095 9.4334 30.0953 9.21892C29.881 9.00444 29.591 8.8827 29.2879 8.87992C28.9847 8.87715 28.6926 8.99356 28.4744 9.20408L27.1856 10.4914C25.06 8.69595 22.4287 7.60602 19.6561 7.37258V5.01074H20.8123C21.119 5.01074 21.4131 4.88892 21.6299 4.67208C21.8468 4.45525 21.9686 4.16115 21.9686 3.85449C21.9686 3.54784 21.8468 3.25374 21.6299 3.0369C21.4131 2.82006 21.119 2.69824 20.8123 2.69824H16.1873ZM14.0675 13.1353C15.4152 12.3575 16.9438 11.9481 18.4998 11.9482V20.8128L26.1773 25.2451C25.4969 26.4214 24.5552 27.4254 23.4249 28.1797C22.2945 28.9339 21.0059 29.4182 19.6586 29.595C18.3113 29.7718 16.9414 29.6365 15.6547 29.1994C14.368 28.7624 13.1991 28.0353 12.2382 27.0744C11.2774 26.1136 10.5503 24.9446 10.1132 23.658C9.67619 22.3713 9.54084 21.0014 9.71766 19.6541C9.89447 18.3067 10.3787 17.0181 11.133 15.8878C11.8872 14.7575 12.8913 13.8157 14.0675 13.1353Z" fill="#FFC600"/>
</svg>
