<svg width="43" height="45" viewBox="0 0 43 45" fill="none" xmlns="http://www.w3.org/2000/svg">
<path d="M31.8671 16.2027C35.0044 18.2735 38.8478 19.4919 42.9988 19.4919V12.1165C42.2132 12.1168 41.4296 12.0411 40.6611 11.8906V17.6961C36.5104 17.6961 32.6674 16.4778 29.5294 14.4072V29.4583C29.5294 36.9877 22.9188 43.091 14.765 43.091C11.7226 43.091 8.89464 42.2417 6.54559 40.7851C9.22671 43.3164 12.9657 44.8866 17.1021 44.8866C25.2566 44.8866 31.8674 38.7834 31.8674 31.2536V16.2027H31.8671ZM34.7511 8.76185C33.1476 7.14449 32.0948 5.05432 31.8671 2.74349V1.79492H29.6517C30.2094 4.73187 32.1116 7.24101 34.7511 8.76185ZM11.7029 35.0074C10.807 33.923 10.3228 32.5962 10.3251 31.2321C10.3251 27.7885 13.3487 24.9963 17.0791 24.9963C17.7742 24.9959 18.4652 25.0945 19.1278 25.2885V17.7482C18.3535 17.6503 17.5721 17.6085 16.791 17.6239V23.4928C16.1281 23.2988 15.4367 23.2003 14.7413 23.2008C11.011 23.2008 7.9876 25.9927 7.9876 29.4367C7.9876 31.872 9.49882 33.9803 11.7029 35.0074Z" fill="#FF004F"/>
<path d="M29.5294 14.407C32.6676 16.4776 36.5102 17.6959 40.6611 17.6959V11.8904C38.3441 11.4347 36.293 10.3168 34.7509 8.76185C32.1113 7.24085 30.2094 4.73171 29.6517 1.79492H23.8328V31.2533C23.8195 34.6876 20.8011 37.4683 17.0788 37.4683C14.8854 37.4683 12.9366 36.503 11.7026 35.0072C9.49883 33.9803 7.98744 31.8718 7.98744 29.4369C7.98744 25.9931 11.0109 23.201 14.7411 23.201C15.4558 23.201 16.1447 23.3037 16.7909 23.493V17.6241C8.78009 17.7769 2.33765 23.8206 2.33765 31.2535C2.33765 34.964 3.94192 38.3276 6.54577 40.7854C8.89481 42.2417 11.7226 43.0913 14.7651 43.0913C22.9192 43.0913 29.5296 36.9876 29.5296 29.4583L29.5294 14.407Z" fill="black"/>
<path d="M40.661 11.8909V10.3214C38.5717 10.3242 36.5236 9.784 34.7509 8.76243C36.3201 10.3486 38.3863 11.4425 40.661 11.8912M29.6515 1.79534C29.5984 1.51473 29.5576 1.23224 29.5292 0.948569V0H21.4946V29.4587C21.4819 32.8927 18.4635 35.6734 14.7409 35.6734C13.6856 35.6748 12.6448 35.4469 11.7024 35.0081C12.9364 36.5035 14.8852 37.4687 17.0786 37.4687C20.8007 37.4687 23.8195 34.6883 23.8326 31.254V1.7955L29.6515 1.79534ZM16.7912 17.6245V15.9534C16.1198 15.8688 15.4429 15.8263 14.7653 15.8265C6.61041 15.8265 0 21.93 0 29.4587C0 34.1789 2.59797 38.3388 6.54591 40.7857C3.94206 38.3281 2.33779 34.9642 2.33779 31.2539C2.33779 23.8211 8.78006 17.7773 16.7912 17.6245Z" fill="#00F2EA"/>
</svg>
