<svg width="53" height="54" viewBox="0 0 53 54" fill="none" xmlns="http://www.w3.org/2000/svg">
<path d="M1.13103 26.6767C1.12979 31.2137 2.30241 35.6438 4.53214 39.5485L0.917786 52.8899L14.4228 49.31C18.1582 51.3657 22.3433 52.4429 26.5963 52.4432H26.6075C40.6473 52.4432 52.076 40.8933 52.082 26.697C52.0847 19.8178 49.4372 13.3491 44.6271 8.48243C39.8177 3.61615 33.4215 0.93478 26.6064 0.931641C12.565 0.931641 1.13703 12.4809 1.13123 26.6767" fill="url(#paint0_linear_647_30)"/>
<path d="M0.221523 26.6685C0.220074 31.3688 1.43473 35.9573 3.74395 40.0019L0 53.8215L13.9893 50.1133C17.8438 52.2379 22.1836 53.3581 26.5996 53.3597H26.611C41.1545 53.3597 52.9938 41.3943 53 26.6898C53.0025 19.5635 50.2597 12.8623 45.2777 7.82121C40.2951 2.78079 33.6701 0.00293023 26.611 0C12.065 0 0.22732 11.9637 0.221523 26.6685ZM8.55267 39.3053L8.03033 38.467C5.83455 34.9374 4.67559 30.8585 4.67725 26.6701C4.6818 14.4479 14.5208 4.50419 26.6193 4.50419C32.4782 4.5067 37.9844 6.81572 42.1259 11.0051C46.2671 15.1949 48.5459 20.7645 48.5445 26.6881C48.5391 38.9103 38.6999 48.8553 26.611 48.8553H26.6023C22.666 48.8533 18.8055 47.7846 15.4387 45.765L14.6375 45.2846L6.33598 47.485L8.55267 39.3053Z" fill="url(#paint1_linear_647_30)"/>
<path d="M20.0154 15.5189C19.5214 14.4089 19.0015 14.3865 18.5318 14.3671C18.1471 14.3503 17.7074 14.3516 17.2681 14.3516C16.8283 14.3516 16.1139 14.5188 15.5099 15.1854C14.9054 15.8527 13.202 17.4652 13.202 20.7447C13.202 24.0243 15.5648 27.194 15.8942 27.6391C16.224 28.0835 20.4557 35.029 27.1577 37.7009C32.7277 39.9214 33.8612 39.4798 35.0701 39.3684C36.2791 39.2575 38.9713 37.7564 39.5206 36.1998C40.0703 34.6434 40.0703 33.3094 39.9055 33.0306C39.7407 32.7528 39.3009 32.586 38.6416 32.2528C37.9822 31.9196 34.7403 30.3067 34.1359 30.0842C33.5314 29.8619 33.0919 29.751 32.6521 30.4185C32.2124 31.0849 30.9497 32.586 30.5648 33.0306C30.1804 33.4762 29.7955 33.5316 29.1363 33.1982C28.4765 32.8637 26.353 32.1607 23.8336 29.89C21.8735 28.123 20.5501 25.9411 20.1655 25.2736C19.7808 24.6072 20.1243 24.2459 20.4549 23.9138C20.7512 23.6151 21.1145 23.1354 21.4445 22.7463C21.7733 22.357 21.883 22.0792 22.1029 21.6347C22.3229 21.1897 22.2128 20.8004 22.0482 20.467C21.883 20.1336 20.6017 16.8368 20.0154 15.5189Z" fill="white"/>
<defs>
<linearGradient id="paint0_linear_647_30" x1="2559.13" y1="5196.76" x2="2559.13" y2="0.931641" gradientUnits="userSpaceOnUse">
<stop stop-color="#1FAF38"/>
<stop offset="1" stop-color="#60D669"/>
</linearGradient>
<linearGradient id="paint1_linear_647_30" x1="2650" y1="5382.15" x2="2650" y2="0" gradientUnits="userSpaceOnUse">
<stop stop-color="#F9F9F9"/>
<stop offset="1" stop-color="white"/>
</linearGradient>
</defs>
</svg>
